<svg width="1200" height="760" viewBox="0 0 1200 760" fill="none" xmlns="http://www.w3.org/2000/svg">
  <rect width="1200" height="760" rx="28" fill="#09111F"/>
  <rect x="36" y="36" width="1128" height="688" rx="24" fill="#0F172A" stroke="#1E293B"/>
  <rect x="36" y="36" width="1128" height="56" rx="24" fill="#111C30"/>
  <circle cx="82" cy="64" r="9" fill="#FB7185"/>
  <circle cx="112" cy="64" r="9" fill="#FBBF24"/>
  <circle cx="142" cy="64" r="9" fill="#34D399"/>
  <text x="564" y="71" text-anchor="middle" fill="#CBD5E1" font-family="'Segoe UI', Arial, sans-serif" font-size="20" font-weight="600">llm-bench live benchmark</text>

  <text x="74" y="144" fill="#F8FAFC" font-family="'Segoe UI', Arial, sans-serif" font-size="34" font-weight="700">LLM Bench</text>
  <text x="265" y="144" fill="#38BDF8" font-family="'Segoe UI', Arial, sans-serif" font-size="28" font-weight="600">Racing 4 models...</text>
  <text x="74" y="184" fill="#94A3B8" font-family="'Segoe UI', Arial, sans-serif" font-size="20">Prompt: Compare REST and GraphQL for mobile APIs</text>

  <rect x="70" y="220" width="1060" height="420" rx="18" fill="#08101E" stroke="#1E293B"/>
  <text x="92" y="266" fill="#64748B" font-family="'Courier New', monospace" font-size="18" font-weight="700">MODEL</text>
  <text x="430" y="266" fill="#64748B" font-family="'Courier New', monospace" font-size="18" font-weight="700">STATUS</text>
  <text x="618" y="266" fill="#64748B" font-family="'Courier New', monospace" font-size="18" font-weight="700">TOKENS</text>
  <text x="770" y="266" fill="#64748B" font-family="'Courier New', monospace" font-size="18" font-weight="700">TIME</text>
  <text x="920" y="266" fill="#64748B" font-family="'Courier New', monospace" font-size="18" font-weight="700">COST</text>
  <line x1="90" y1="286" x2="1110" y2="286" stroke="#1E293B"/>

  <rect x="82" y="302" width="1036" height="58" rx="12" fill="#0B1526"/>
  <text x="102" y="338" fill="#F8FAFC" font-family="'Courier New', monospace" font-size="24">GPT-4o</text>
  <text x="430" y="338" fill="#38BDF8" font-family="'Courier New', monospace" font-size="24">streaming</text>
  <text x="628" y="338" fill="#E2E8F0" font-family="'Courier New', monospace" font-size="24">182</text>
  <text x="770" y="338" fill="#E2E8F0" font-family="'Courier New', monospace" font-size="24">1.8s</text>
  <text x="920" y="338" fill="#E2E8F0" font-family="'Courier New', monospace" font-size="24">$0.0034</text>

  <rect x="82" y="372" width="1036" height="58" rx="12" fill="#0B1526"/>
  <text x="102" y="408" fill="#F8FAFC" font-family="'Courier New', monospace" font-size="24">Claude Sonnet 4.6</text>
  <text x="430" y="408" fill="#4ADE80" font-family="'Courier New', monospace" font-size="24">done</text>
  <text x="628" y="408" fill="#E2E8F0" font-family="'Courier New', monospace" font-size="24">245</text>
  <text x="770" y="408" fill="#E2E8F0" font-family="'Courier New', monospace" font-size="24">2.7s</text>
  <text x="920" y="408" fill="#E2E8F0" font-family="'Courier New', monospace" font-size="24">$0.0068</text>

  <rect x="82" y="442" width="1036" height="58" rx="12" fill="#10281A" stroke="#14532D"/>
  <text x="102" y="478" fill="#F8FAFC" font-family="'Courier New', monospace" font-size="24" font-weight="700">Gemini 2.5 Flash</text>
  <text x="430" y="478" fill="#4ADE80" font-family="'Courier New', monospace" font-size="24">done</text>
  <text x="628" y="478" fill="#E2E8F0" font-family="'Courier New', monospace" font-size="24">210</text>
  <text x="770" y="478" fill="#E2E8F0" font-family="'Courier New', monospace" font-size="24">1.2s</text>
  <text x="920" y="478" fill="#E2E8F0" font-family="'Courier New', monospace" font-size="24">$0.0004</text>

  <rect x="82" y="512" width="1036" height="58" rx="12" fill="#0B1526"/>
  <text x="102" y="548" fill="#F8FAFC" font-family="'Courier New', monospace" font-size="24">Llama 3.3-70b</text>
  <text x="430" y="548" fill="#FB7185" font-family="'Courier New', monospace" font-size="24">failed</text>
  <text x="628" y="548" fill="#64748B" font-family="'Courier New', monospace" font-size="24">-</text>
  <text x="770" y="548" fill="#E2E8F0" font-family="'Courier New', monospace" font-size="24">0.6s</text>
  <text x="920" y="548" fill="#64748B" font-family="'Courier New', monospace" font-size="24">-</text>

  <rect x="70" y="664" width="1060" height="34" rx="12" fill="#0B1322"/>
  <text x="90" y="687" fill="#4ADE80" font-family="'Segoe UI', Arial, sans-serif" font-size="20" font-weight="700">Winner: Gemini 2.5 Flash</text>
  <text x="376" y="687" fill="#94A3B8" font-family="'Segoe UI', Arial, sans-serif" font-size="20">(1.2s, $0.0004, score: 8.9)</text>
</svg>
